<?xml version="1.0" encoding="UTF-8"?>
<svg fill="#116AF2" width="100pt" height="100pt" version="1.1" viewBox="0 0 100 100" xmlns="http://www.w3.org/2000/svg">
 <path d="m41.434 0.84375c-0.55469-0.019531-1.0781 0.26562-1.3594 0.74609-0.27734 0.48047-0.26953 1.0781 0.027343 1.5508 1.6641 2.7539 2.0703 4.9922 1.9219 7.1641-0.14453 2.1719-0.89844 4.3086-1.7422 6.6016-1.6836 4.5859-3.6211 10.027-0.09375 16.809h0.003906c0.17969 0.35547 0.49609 0.625 0.87891 0.74609 0.37891 0.12109 0.79297 0.085937 1.1484-0.097657 0.35156-0.18359 0.62109-0.50391 0.73828-0.88672 0.12109-0.37891 0.082031-0.79297-0.10547-1.1445-3.043-5.8516-1.4453-9.7852 0.24219-14.391 0.84375-2.3008 1.7383-4.7148 1.918-7.4336 0.17969-2.7188-0.41016-5.7109-2.3477-8.918l0.003907-0.003906c-0.25781-0.44141-0.72266-0.71875-1.2344-0.73828zm-13.695 5.7188v0.003906c-0.55469-0.023437-1.0781 0.26562-1.3555 0.74609-0.28125 0.48047-0.27344 1.0742 0.023438 1.5469 1.6641 2.7539 2.0703 4.9961 1.9219 7.168-0.14453 2.1719-0.89844 4.3086-1.7422 6.6016-1.6836 4.5859-3.6211 10.027-0.09375 16.809h0.003906c0.17969 0.35547 0.49609 0.62109 0.87891 0.74219 0.37891 0.125 0.79297 0.085937 1.1484-0.097657 0.35547-0.18359 0.62109-0.5 0.73828-0.88281 0.12109-0.38281 0.082031-0.79297-0.10547-1.1484-3.043-5.8516-1.4453-9.7812 0.24609-14.387 0.84375-2.3008 1.7383-4.7188 1.918-7.4375 0.17969-2.7188-0.41016-5.7109-2.3477-8.918-0.25781-0.44141-0.72266-0.71875-1.2344-0.74219zm27.391 0v0.003906c-0.55469-0.023437-1.0781 0.26172-1.3594 0.74219-0.27734 0.48047-0.26953 1.0781 0.023438 1.5508 1.6641 2.7539 2.0703 4.9961 1.9219 7.168-0.14453 2.1719-0.89844 4.3086-1.7422 6.6016-1.6836 4.5859-3.6172 10.027-0.089844 16.809h0.003907c0.17969 0.35547 0.49609 0.62109 0.87891 0.74219 0.37891 0.125 0.79297 0.085937 1.1484-0.097657 0.35547-0.18359 0.62109-0.5 0.73828-0.88281 0.12109-0.38281 0.082031-0.79297-0.10547-1.1484-3.043-5.8516-1.4453-9.7812 0.24219-14.387 0.84375-2.3008 1.7383-4.7188 1.918-7.4375 0.17969-2.7188-0.41016-5.7109-2.3477-8.918h0.003906c-0.25781-0.44141-0.72266-0.71875-1.2344-0.74219zm-51.094 36.484 0.003906 0.003906c-0.39844 0.003907-0.77344 0.16797-1.0508 0.44922-0.003906 0.007812-0.011719 0.011719-0.015625 0.015625-0.003906 0.007813-0.011718 0.015625-0.019531 0.019531-0.32422 0.33984-0.46875 0.8125-0.39453 1.2773v28.461c0 9.8555 5.5195 18.398 13.645 22.723h-12.152l-0.003906-0.003906c-0.40234-0.007813-0.78906 0.14844-1.0742 0.42969-0.28906 0.28125-0.44922 0.66797-0.44922 1.0703 0 0.40234 0.16016 0.78906 0.44922 1.0703 0.28516 0.28125 0.67188 0.4375 1.0742 0.42969h24.008c0.078124 0 0.15625 0.003906 0.23047 0.003906h21.32c0.054687 0 0.10547-0.003906 0.15625-0.003906h24.059l0.007813 0.003906c0.40234 0.007812 0.78906-0.14844 1.0781-0.42969 0.28516-0.28125 0.44531-0.66797 0.44531-1.0703 0-0.39844-0.16016-0.78516-0.44531-1.0664-0.28906-0.28125-0.67578-0.4375-1.0781-0.43359h-12.141c5.1133-2.7188 9.1953-7.1133 11.52-12.453 1.9805 0.70312 4.1133 1.0898 6.3281 1.0898 10.434 0 18.922-8.4883 18.922-18.922 0-10.434-8.4883-18.926-18.922-18.926-1.4414 0-2.8438 0.17578-4.1992 0.48047v-2.6875h0.003906c0-0.82812-0.67188-1.5-1.5-1.5l-69.531-0.007813c-0.089844-0.011718-0.17969-0.019531-0.26953-0.019531zm1.5234 3.0234 66.777 0.007813v5.9297l-53.863-0.007812h0.003906c-0.40234-0.003906-0.78906 0.14844-1.0781 0.43359-0.28516 0.28125-0.44922 0.66406-0.44922 1.0664s0.16406 0.78906 0.44922 1.0703c0.28906 0.28125 0.67578 0.4375 1.0781 0.42969l53.863 0.007812v18.262c0 1.2109-0.09375 2.4023-0.27344 3.5586l-0.003906 0.003906c-0.046875 0.14453-0.074219 0.29688-0.078125 0.44922-1.8672 10.633-11.039 18.641-22.215 18.715h-21.715c-12.508-0.125-22.496-10.184-22.496-22.723zm73.977 3.7148c8.8125 0 15.922 7.1133 15.922 15.926s-7.1094 15.922-15.922 15.922c-1.8594 0-3.6367-0.33203-5.2891-0.91406 0.14062-0.46094 0.26172-0.92969 0.375-1.4023 1.2852 0.38281 2.6445 0.60156 4.0508 0.60156 7.8281 0 14.797-6.2969 14.797-14.211 0-7.9141-6.9648-14.211-14.797-14.211-1.1445 0-2.2617 0.14062-3.332 0.39453v-1.543c1.3359-0.36328 2.7422-0.57031 4.1992-0.57031zm-0.86328 4.7148c6.207 0 11.797 5.082 11.797 11.211 0 6.125-5.5859 11.211-11.797 11.211-1.2344 0-2.4141-0.19922-3.5234-0.5625 0.12109-1.0117 0.1875-2.0391 0.1875-3.082v-18.262c1.0508-0.32812 2.168-0.51172 3.332-0.51172z"/>
</svg>
