<?xml version="1.0" encoding="UTF-8"?>
<svg fill="#116AF2" width="100pt" height="100pt" version="1.1" viewBox="0 0 100 100" xmlns="http://www.w3.org/2000/svg">
 <g>
  <path d="m55.312 77.422h-47.402c-0.61328 0-1.1094-0.49609-1.1094-1.1094v-65.789c0-0.61328 0.49609-1.1133 1.1094-1.1133h68.512c0.29688 0 0.57812 0.11719 0.78516 0.32812 0.21094 0.20703 0.32812 0.48828 0.32812 0.78516v44.676c0 0.61328-0.5 1.1133-1.1133 1.1133s-1.1094-0.5-1.1094-1.1133v-43.566h-66.289v63.566h46.289c0.61328 0 1.1094 0.5 1.1094 1.1133s-0.49609 1.1094-1.1094 1.1094z"/>
  <path d="m76.422 28.555h-68.512c-0.61328 0-1.1094-0.49609-1.1094-1.1094 0-0.61328 0.49609-1.1133 1.1094-1.1133h68.512c0.61328 0 1.1133 0.5 1.1133 1.1133 0 0.61328-0.5 1.1094-1.1133 1.1094z"/>
  <path d="m24.18 20.633c-0.61719 0-1.1133-0.49609-1.1133-1.1094v-18.078c0-0.61328 0.49609-1.1133 1.1133-1.1133 0.61328 0 1.1094 0.5 1.1094 1.1133v18.078c0 0.29297-0.11719 0.57422-0.32422 0.78516-0.21094 0.20703-0.49219 0.32422-0.78516 0.32422z"/>
  <path d="m60.156 20.633c-0.61328 0-1.1133-0.49609-1.1133-1.1094v-18.078c0-0.61328 0.5-1.1133 1.1133-1.1133s1.1094 0.5 1.1094 1.1133v18.078c0 0.29297-0.11719 0.57422-0.32422 0.78516-0.20703 0.20703-0.49219 0.32422-0.78516 0.32422z"/>
  <path d="m76.422 98.477c-5.875-0.011718-11.504-2.3594-15.652-6.5234-4.1445-4.1641-6.4688-9.8047-6.457-15.68 0.007812-5.875 2.3516-11.508 6.5117-15.656 4.1602-4.1484 9.7969-6.4766 15.672-6.4727 5.875 0.003907 11.508 2.3438 15.664 6.5 4.1523 4.1562 6.4844 9.7891 6.4844 15.668-0.015625 5.8828-2.3633 11.52-6.5273 15.676-4.168 4.1562-9.8125 6.4883-15.695 6.4883zm0-42.102v0.003906c-5.2852 0.011719-10.352 2.1289-14.082 5.875-3.7266 3.7461-5.8164 8.8203-5.8047 14.109 0.007813 5.2852 2.1172 10.352 5.8633 14.086 3.7461 3.7305 8.8164 5.8242 14.105 5.8164 5.2852-0.007813 10.355-2.1133 14.09-5.8555 3.7344-3.7383 5.832-8.8125 5.8281-14.098-0.015625-5.293-2.1328-10.363-5.8828-14.102-3.7461-3.7344-8.8242-5.832-14.117-5.832z"/>
  <path d="m85.254 77.422h-8.8906 0.003907c-0.61328 0-1.1133-0.49609-1.1133-1.1094v-14.566c0-0.61719 0.5-1.1133 1.1133-1.1133 0.61328 0 1.1094 0.49609 1.1094 1.1133v13.453h7.7773c0.61719 0 1.1133 0.5 1.1133 1.1133s-0.49609 1.1094-1.1133 1.1094z"/>
 </g>
</svg>
