<?xml version="1.0" encoding="UTF-8"?>
<svg fill="#116AF2" width="100pt" height="100pt" version="1.1" viewBox="0 0 100 100" xmlns="http://www.w3.org/2000/svg">
 <g>
  <path d="m45.668 27.59c-2.0625 0.003906-3.918-1.2344-4.7109-3.1328-0.78906-1.9023-0.35938-4.0938 1.0977-5.5508 1.4531-1.457 3.6445-1.8945 5.5469-1.1094 1.9023 0.78906 3.1445 2.6445 3.1445 4.7031-0.007813 2.8047-2.2773 5.0781-5.0781 5.0898zm0-8.5c-1.3867-0.003906-2.6406 0.82812-3.1719 2.1055-0.53125 1.2812-0.24219 2.7539 0.73828 3.7344 0.98047 0.98047 2.457 1.2734 3.7344 0.74219 1.2812-0.53516 2.1133-1.7852 2.1094-3.1719-0.007813-1.8828-1.5312-3.4062-3.4102-3.4102z"/>
  <path d="m27.367 76.668c-3.2812-0.023438-6.2305-2.0156-7.4727-5.0547-1.2422-3.0391-0.53906-6.5273 1.7891-8.8438 2.3242-2.3164 5.8164-3.0078 8.8477-1.75 3.0352 1.2539 5.0156 4.2109 5.0234 7.4922 0.007812 2.1719-0.85547 4.2539-2.3945 5.7852-1.5352 1.5312-3.6211 2.3828-5.793 2.3711zm0-14.043v-0.003906c-2.3867 0.023437-4.5273 1.4805-5.4258 3.6953-0.89453 2.2109-0.37109 4.7461 1.3281 6.4219 1.6992 1.6797 4.2422 2.168 6.4414 1.2461 2.2031-0.92578 3.6328-3.0859 3.6211-5.4727 0-1.5781-0.63281-3.0859-1.7539-4.1953-1.1172-1.1094-2.6367-1.7266-4.2109-1.7148z"/>
  <path d="m37.777 84.289h-20.801c-0.46484 0.003907-0.90625-0.19922-1.207-0.55469-0.30469-0.35156-0.43359-0.82031-0.35938-1.2773 0.32031-2.0352 1.9219-8.6328 9.0898-8.6328v2.2227c-4.6992 0-6.2461 3.7656-6.7539 6.0234l19.242-0.003906c-0.51172-2.2227-2.0547-6.0234-6.7539-6.0234v-2.2227c7.168 0 8.7656 6.6016 9.0898 8.6328l-0.003907 0.003906c0.078126 0.45703-0.054687 0.92188-0.35547 1.2773-0.29688 0.34375-0.73047 0.54688-1.1875 0.55469zm-0.62109-1.4883zm-19.535 0z"/>
  <path d="m27.367 93.332c-5.3711 0-10.52-2.1289-14.316-5.9258-3.8008-3.7969-5.9375-8.9453-5.9414-14.312-0.003906-5.3711 2.125-10.523 5.918-14.324 3.793-3.8008 8.9414-5.9375 14.309-5.9492 5.3711-0.007812 10.523 2.1172 14.328 5.9102 3.8047 3.7891 5.9453 8.9336 5.957 14.305 0.011718 5.3789-2.1211 10.539-5.918 14.348-3.8008 3.8047-8.957 5.9492-14.336 5.9492zm0-38.277c-4.7852 0-9.375 1.9023-12.758 5.2891s-5.2812 7.9766-5.2773 12.766c0.007813 4.7852 1.9141 9.3711 5.3047 12.75 3.3867 3.3789 7.9805 5.2734 12.766 5.2617 4.7891-0.007813 9.375-1.9219 12.75-5.3125 3.375-3.3945 5.2617-7.9883 5.2461-12.773-0.003907-4.7812-1.9062-9.3672-5.2852-12.746-3.3828-3.3828-7.9648-5.2812-12.746-5.2891z"/>
  <path d="m79.156 47.355c-3.293 0.003906-6.2617-1.9727-7.5234-5.0117-1.2617-3.0391-0.57031-6.5391 1.7578-8.8672 2.3242-2.3281 5.8242-3.0273 8.8633-1.7695 3.043 1.2578 5.0234 4.2227 5.0234 7.5156 0 4.4883-3.6328 8.125-8.1211 8.1328zm0-14.043c-2.3906-0.007812-4.5508 1.4297-5.4688 3.6406-0.91797 2.207-0.41797 4.7539 1.2734 6.4453 1.6914 1.6914 4.2344 2.1992 6.4414 1.2852 2.2109-0.91406 3.6523-3.0703 3.6523-5.4609-0.011719-3.2539-2.6484-5.8828-5.8984-5.8906z"/>
  <path d="m89.535 55h-20.77c-0.46484 0.003906-0.91016-0.19922-1.2148-0.55469-0.30078-0.35937-0.42969-0.82812-0.35156-1.2891 0.3125-2.0234 1.9219-8.6211 9.0898-8.6211v2.2227c-4.6992 0-6.2539 3.7656-6.7539 6.0234l19.242-0.003906c-0.51172-2.2227-2.0664-6.0234-6.7539-6.0234v-2.2227c7.168 0 8.7656 6.6016 9.0898 8.6328l-0.003906 0.003907c0.078125 0.45703-0.054687 0.92188-0.35547 1.2773-0.30469 0.35156-0.75391 0.55469-1.2188 0.55469zm-0.64453-1.4883zm-19.523 0z"/>
  <path d="m79.156 63.801c-5.375 0.003907-10.527-2.1289-14.328-5.9297-3.8008-3.7969-5.9375-8.9492-5.9375-14.324-0.003906-5.3711 2.1328-10.527 5.9297-14.324 3.8008-3.8008 8.9531-5.9336 14.328-5.9336s10.527 2.1367 14.324 5.9375c3.7969 3.8008 5.9297 8.957 5.9258 14.328-0.003907 5.3672-2.1406 10.516-5.9336 14.309-3.7969 3.7969-8.9414 5.9297-14.309 5.9375zm0-38.277c-4.7852-0.003907-9.3711 1.8945-12.758 5.2734-3.3828 3.3828-5.2852 7.9688-5.2891 12.75 0 4.7852 1.8984 9.3711 5.2812 12.758 3.3789 3.3828 7.9648 5.2852 12.75 5.2852s9.3711-1.8984 12.754-5.2812c3.3828-3.3828 5.2852-7.9688 5.2852-12.754-0.015626-4.7734-1.9219-9.3438-5.2969-12.719-3.3789-3.375-7.9531-5.2734-12.727-5.2812z"/>
  <path d="m45.668 38.066c-5.1094 0.003906-9.7148-3.0664-11.672-7.7852-1.957-4.7148-0.87891-10.145 2.7305-13.758 3.6094-3.6133 9.0391-4.6953 13.758-2.7422s7.793 6.5586 7.793 11.664c-0.011719 6.9609-5.6484 12.602-12.609 12.621zm0-23.012c-4.2109-0.003907-8.0078 2.5273-9.6172 6.4141-1.6133 3.8906-0.72656 8.3633 2.25 11.34 2.9766 2.9766 7.4531 3.8672 11.34 2.2539s6.418-5.4102 6.4141-9.6172c-0.003907-5.7344-4.6523-10.383-10.387-10.391z"/>
  <path d="m55.266 31.891 1.0547-1.9531 6.5312 3.5273-1.0547 1.9531z"/>
  <path d="m43.461 62.59 18.508-10.543 1.1016 1.9297-18.508 10.543z"/>
  <path d="m51.945 32.223h-12.566c-0.32812 0.003906-0.64453-0.13672-0.85547-0.38672-0.21484-0.24609-0.30859-0.57813-0.25781-0.90234 0.41016-2.6016 2.1094-5.3672 5.668-5.3672v1.668c-1.9375 0.007813-3.5859 1.418-3.8906 3.332h11.246c-0.30469-1.9141-1.9531-3.3242-3.8906-3.332v-1.6797c3.543 0 5.2539 2.7656 5.6562 5.3555 0.058593 0.32422-0.03125 0.66016-0.24219 0.91016-0.21875 0.25391-0.53516 0.39844-0.86719 0.40234zm-0.53516-1.0352z"/>
  <path d="m6.0234 65.844c-0.14063 0-0.28125-0.023438-0.41406-0.078125-0.5625-0.22656-0.83984-0.86328-0.62109-1.4336 2.2227-5.7812 6.6055-10.473 12.223-13.086 0.26953-0.13281 0.57812-0.15234 0.85937-0.054688 0.28125 0.10156 0.51172 0.30859 0.63672 0.57812 0.12891 0.26953 0.14062 0.57812 0.035157 0.85938-0.10156 0.27734-0.3125 0.50391-0.58594 0.625-5.082 2.4023-9.0547 6.6484-11.113 11.879-0.16016 0.42578-0.56641 0.70703-1.0195 0.71094z"/>
  <path d="m1.7109 67.32c-0.09375 0.019532-0.19141 0.019532-0.28906 0-0.58984-0.15625-0.94531-0.76172-0.78906-1.3555 2.4727-9.2852 9.5703-16.637 18.766-19.43 0.28516-0.089844 0.58984-0.058594 0.85156 0.082032 0.26172 0.14062 0.45312 0.37891 0.53906 0.66016 0.085938 0.28906 0.046876 0.60156-0.10156 0.86328s-0.39453 0.44922-0.6875 0.52734c-8.4297 2.5586-14.953 9.2734-17.266 17.777-0.10547 0.48828-0.52344 0.84766-1.0234 0.875z"/>
 </g>
</svg>
