<svg width="260" height="98" viewBox="0 0 260 98" fill="none" xmlns="http://www.w3.org/2000/svg">
<path d="M144.492 42.0132C144.899 42.0132 145.163 42.0946 145.285 42.2574C145.855 42.9494 146.14 43.5193 146.14 43.9671C146.14 44.3741 146.018 44.7405 145.774 45.0662C145.53 45.3511 145.224 45.6971 144.858 46.1042C144.533 46.4705 143.841 46.9997 142.783 47.6917C141.765 48.343 140.768 48.6687 139.792 48.6687C139.059 48.5466 138.693 48.0988 138.693 47.3254C138.693 46.1042 139.426 44.9237 140.891 43.7839C142.356 42.6034 143.556 42.0132 144.492 42.0132ZM129.842 66.0707C129.517 66.6406 129.354 67.1494 129.354 67.5972C129.354 68.045 129.598 68.2689 130.086 68.2689C130.371 68.2689 130.859 68.1468 131.551 67.9025C139.161 63.9133 146.608 59.2117 153.892 53.7977C154.259 54.0826 154.442 54.4287 154.442 54.8357C154.442 55.2428 154.238 55.6295 153.831 55.9959C153.424 56.3622 152.834 56.8914 152.061 57.5834C151.329 58.2754 149.904 59.517 147.788 61.3081C145.672 63.0991 143.698 64.7274 141.867 66.1928C137.065 70.06 133.525 72.3395 131.246 73.0315C130.514 73.2351 129.72 73.3368 128.865 73.3368C125.732 73.3368 124.165 71.6679 124.165 68.3299C124.165 67.0273 124.877 65.1752 126.302 62.7735C127.726 60.3311 129.191 58.194 130.697 56.3622C132.202 54.4897 133.199 53.4517 133.688 53.2482C134.42 52.8004 135.214 52.5765 136.068 52.5765C136.923 52.5765 137.737 52.7393 138.51 53.065C138.754 53.1871 138.876 53.3499 138.876 53.5535C138.876 53.757 138.673 54.0623 138.266 54.4694C137.9 54.8764 137.309 55.5074 136.496 56.3622C135.722 57.2171 134.542 58.7028 132.955 60.8196C131.409 62.8956 130.371 64.646 129.842 66.0707Z" fill="black"/>
<path d="M153.887 52.027C154.213 52.027 154.742 52.1898 155.474 52.5154C156.247 52.8411 156.634 53.2075 156.634 53.6145C156.634 53.8995 156.532 54.1844 156.329 54.4694L151.751 60.8196C151.222 61.4709 150.957 61.8372 150.957 61.9187C150.957 62.0001 150.978 62.0408 151.018 62.0408L151.323 61.8576C156.044 58.5604 159.93 55.6702 162.982 53.1871C163.552 52.78 164.02 52.5765 164.386 52.5765C164.793 52.5765 165.058 52.6172 165.18 52.6986L166.889 53.1871C167.296 53.3906 167.499 53.6552 167.499 53.9809C167.499 54.3065 167.418 54.5711 167.255 54.7747C166.482 55.6295 165.587 56.6065 164.569 57.7055C163.593 58.7639 162.86 59.578 162.372 60.1479C161.884 60.6771 161.334 61.2877 160.724 61.9797C160.113 62.6717 159.666 63.2009 159.381 63.5673C159.137 63.9336 158.852 64.361 158.526 64.8495C158.201 65.2973 157.977 65.684 157.855 66.0097C157.611 66.9459 157.489 67.76 157.489 68.4521C157.489 68.8184 157.712 69.0016 158.16 69.0016C158.648 69.0016 159.503 68.7166 160.724 68.1468C161.985 67.5769 163.471 66.7017 165.18 65.5212C166.93 64.3407 169.229 62.6717 172.077 60.5143C174.967 58.3161 177.49 56.464 179.647 54.9578C180.013 55.2428 180.196 55.5888 180.196 55.9959C180.196 56.4029 180.013 56.7693 179.647 57.0949C178.344 58.3568 176.696 59.9444 174.702 61.8576C172.708 63.7301 169.656 66.2539 165.546 69.429C161.477 72.6041 158.628 74.1917 157 74.1917C153.867 74.1917 152.3 72.5227 152.3 69.1848C152.3 67.9229 152.788 66.5999 153.765 65.2159L156.39 61.6134C156.634 61.247 156.756 61.0435 156.756 61.0028C156.756 60.9213 156.634 60.9824 156.39 61.1859C149.309 67.0884 144.792 70.5484 142.839 71.5661C142.513 71.7696 142.106 71.8714 141.618 71.8714C140.275 71.8714 139.604 71.2608 139.604 70.0396C139.604 69.6325 139.705 69.2662 139.909 68.9405C142.92 66.1725 145.036 63.9133 146.257 62.1629C147.234 61.1859 148.251 59.8223 149.309 58.0719C150.408 56.3215 151.323 54.8764 152.056 53.7366C152.829 52.5969 153.44 52.027 153.887 52.027Z" fill="black"/>
<path d="M186.671 53.7977C185.613 53.7977 183.822 54.8968 181.299 57.0949C178.776 59.2524 177.515 60.5753 177.515 61.0638C177.515 61.1452 177.576 61.1859 177.698 61.1859C178.593 61.1859 180.363 60.1886 183.008 58.194C185.694 56.1994 187.037 54.8357 187.037 54.103C187.037 53.8995 186.915 53.7977 186.671 53.7977ZM173.669 73.3368C170.535 73.3368 168.969 71.4236 168.969 67.5972C168.969 65.1955 170.006 62.6514 172.082 59.9647C174.198 57.2374 176.68 55.0189 179.529 53.3092C182.377 51.5588 184.901 50.6837 187.098 50.6837C188.075 50.6837 188.97 51.0704 189.784 51.8438C190.638 52.6172 191.066 53.3703 191.066 54.103C191.066 55.4463 190.109 56.9728 188.197 58.6825C186.284 60.3515 184.27 61.7151 182.154 62.7735C180.078 63.7912 178.695 64.3 178.003 64.3C177.352 64.3 176.863 63.9947 176.538 63.3841C176.375 63.262 176.151 63.2009 175.866 63.2009C175.582 63.2009 175.114 63.7504 174.462 64.8495C173.811 65.9079 173.486 66.7831 173.486 67.4751C173.486 68.1264 173.73 68.5335 174.218 68.6963C177.311 68.6963 180.668 67.8007 184.29 66.0097C187.912 64.1779 192.917 60.9824 199.306 56.4233C199.754 56.0976 200.425 55.6091 201.321 54.9578C202.257 54.3065 202.806 53.9198 202.969 53.7977C203.335 54.0826 203.518 54.4287 203.518 54.8357C203.518 55.2428 203.335 55.6091 202.969 55.9348C200.934 57.9701 198.289 60.2497 195.033 62.7735C191.819 65.2973 188.115 67.699 183.924 69.9785C179.732 72.2174 176.314 73.3368 173.669 73.3368Z" fill="black"/>
<path d="M217.153 44.0281L220.266 43.9671C224.295 43.9671 227.225 44.537 229.056 45.6768C229.951 45.9617 230.399 46.3281 230.399 46.7758C230.399 47.1015 229.992 47.3254 229.178 47.4475C228.405 47.5696 225.658 47.8953 220.937 48.4244C216.258 48.9129 213.043 49.1979 211.293 49.2793C210.52 49.32 208.729 50.6633 205.921 53.3092C203.154 55.9551 200.509 58.8657 197.986 62.0408C195.463 65.2159 194.201 67.4344 194.201 68.6963C194.201 68.8998 194.303 69.083 194.507 69.2458C194.71 69.3679 194.954 69.429 195.239 69.429C195.565 69.429 196.053 69.3069 196.704 69.0627C204.436 64.5035 211.944 59.517 219.228 54.103C219.594 54.3879 219.778 54.734 219.778 55.141C219.778 55.5481 219.574 55.9551 219.167 56.3622C218.76 56.7286 218.15 57.2781 217.336 58.0108C216.563 58.7435 215.098 60.0665 212.941 61.9797C210.784 63.8929 208.749 65.6026 206.837 67.1087C201.709 71.2608 198.128 73.6625 196.094 74.3138C195.361 74.5173 194.486 74.6191 193.469 74.6191C192.492 74.6191 191.577 74.1103 190.722 73.0926C189.908 72.0749 189.501 70.6909 189.501 68.9405C189.501 67.1901 190.62 64.6663 192.858 61.3691C195.137 58.0719 198.23 54.6932 202.137 51.2332C202.503 50.9482 202.686 50.6837 202.686 50.4394C202.686 50.1952 202.259 50.0731 201.404 50.0731L197.559 50.1952C192.146 50.1952 189.359 49.5846 189.196 48.3634C187.934 48.1191 187.304 47.7528 187.304 47.2643C187.304 47.1015 187.385 47.0201 187.548 47.0201C187.711 46.9794 187.853 46.959 187.975 46.959C188.097 46.9183 188.301 46.8776 188.586 46.8369C188.87 46.7962 191.109 46.4705 195.3 45.8599C199.532 45.2493 204.334 44.7405 209.706 44.3334L213.918 38.7159C214.162 38.2275 215.016 37.9832 216.481 37.9832C217.946 37.9832 218.679 38.2885 218.679 38.8991C218.679 39.1026 218.516 39.469 218.191 39.9982L216.665 42.1353C216.461 42.7866 216.339 43.2751 216.298 43.6007C216.298 43.8857 216.583 44.0281 217.153 44.0281Z" fill="black"/>
<path d="M228.848 42.0132C229.255 42.0132 229.519 42.0946 229.641 42.2574C230.211 42.9494 230.496 43.5193 230.496 43.9671C230.496 44.3741 230.374 44.7405 230.129 45.0662C229.885 45.3511 229.58 45.6971 229.214 46.1042C228.888 46.4705 228.196 46.9997 227.138 47.6917C226.121 48.343 225.124 48.6687 224.147 48.6687C223.415 48.5466 223.049 48.0988 223.049 47.3254C223.049 46.1042 223.781 44.9237 225.246 43.7839C226.711 42.6034 227.912 42.0132 228.848 42.0132ZM214.198 66.0707C213.872 66.6406 213.709 67.1494 213.709 67.5972C213.709 68.045 213.954 68.2689 214.442 68.2689C214.727 68.2689 215.215 68.1468 215.907 67.9025C223.517 63.9133 230.964 59.2117 238.248 53.7977C238.614 54.0826 238.797 54.4287 238.797 54.8357C238.797 55.2428 238.594 55.6295 238.187 55.9959C237.78 56.3622 237.19 56.8914 236.417 57.5834C235.684 58.2754 234.26 59.517 232.144 61.3081C230.028 63.0991 228.054 64.7274 226.223 66.1928C221.421 70.06 217.881 72.3395 215.602 73.0315C214.869 73.2351 214.076 73.3368 213.221 73.3368C210.088 73.3368 208.521 71.6679 208.521 68.3299C208.521 67.0273 209.233 65.1752 210.657 62.7735C212.082 60.3311 213.547 58.194 215.052 56.3622C216.558 54.4897 217.555 53.4517 218.043 53.2482C218.776 52.8004 219.569 52.5765 220.424 52.5765C221.278 52.5765 222.092 52.7393 222.866 53.065C223.11 53.1871 223.232 53.3499 223.232 53.5535C223.232 53.757 223.028 54.0623 222.621 54.4694C222.255 54.8764 221.665 55.5074 220.851 56.3622C220.078 57.2171 218.898 58.7028 217.311 60.8196C215.764 62.8956 214.727 64.646 214.198 66.0707Z" fill="black"/>
<path d="M250.512 53.3703C250.471 54.8357 249.556 56.2808 247.765 57.7055C246.015 59.1303 243.879 59.8426 241.356 59.8426C240.298 59.8426 239.769 59.5373 239.769 58.9267C239.769 58.6825 239.952 58.4993 240.318 58.3772C242.76 56.9525 244.306 55.7923 244.957 54.8968C245.039 54.734 245.079 54.5508 245.079 54.3472C245.079 54.1437 244.978 54.0419 244.774 54.0419C241.315 54.5304 238.019 56.4233 234.886 59.7205C231.752 63.0177 230.185 65.5822 230.185 67.414C230.185 68.2689 230.511 68.6963 231.162 68.6963C234.173 68.6963 237.348 67.8211 240.684 66.0707C244.021 64.3203 248.986 61.1045 255.579 56.4233C256.026 56.0976 256.698 55.6091 257.593 54.9578C258.529 54.3065 259.078 53.9198 259.241 53.7977C259.607 54.0826 259.79 54.4287 259.79 54.8357C259.79 55.2428 259.607 55.6091 259.241 55.9348C257.206 57.9701 254.561 60.2497 251.306 62.7735C248.091 65.2973 244.388 67.699 240.196 69.9785C236.005 72.2174 232.586 73.3368 229.941 73.3368C226.808 73.3368 225.241 71.6679 225.241 68.3299C225.241 66.0097 226.014 63.7504 227.561 61.5523C229.107 59.3134 230.999 57.4409 233.237 55.9348C235.476 54.4287 237.816 53.2278 240.257 52.3323C242.699 51.396 244.652 50.9279 246.117 50.9279C247.623 50.9279 248.701 51.1314 249.352 51.5385C250.003 51.9456 250.349 52.3526 250.39 52.7597L250.512 53.3703Z" fill="black"/>
<path d="M116.967 29.5227C117.17 29.2785 119.937 29.5227 120.263 29.5227C120.589 29.5227 120.894 29.6855 121.179 30.0112L121.789 30.6828C121.992 30.8457 122.094 31.0288 122.094 31.2324C122.094 31.3952 121.85 31.7412 121.362 32.2704C120.914 32.7996 119.246 34.6721 116.356 37.8879C109.967 44.9301 106.305 49.0618 105.369 50.283C104.881 50.7715 104.636 51.0768 104.636 51.1989C104.636 51.2803 104.677 51.321 104.758 51.321C104.84 51.321 105.043 51.26 105.369 51.1379C109.398 49.9981 114.769 47.4946 121.484 43.6275C140.407 31.6901 135.618 28.2979 140.407 27.8741C140.773 27.8741 141.302 28.2608 141.994 29.0342C142.726 29.8076 143.092 30.5607 143.092 31.2934C143.092 35.9747 139.491 40.2692 132.288 44.177C126.103 47.5964 118.004 50.8733 107.994 54.0077C107.302 54.2112 106.956 54.4147 106.956 54.6183C106.956 55.3103 107.831 56.7757 109.581 59.0146C111.371 61.2534 113.467 63.5126 115.868 65.7922C118.31 68.0718 120.222 69.4558 121.606 69.9443C123.03 70.4735 123.742 71.1451 123.742 71.9592C123.742 72.1221 123.58 72.2849 123.254 72.4477C121.341 73.384 119.754 73.8521 118.493 73.8521C117.231 73.8521 115.97 73.4654 114.708 72.692C113.487 71.9592 112.267 70.8602 111.046 69.3947C109.866 67.97 108.808 66.6063 107.872 65.3037C106.976 64.0011 105.918 62.4136 104.697 60.5411C103.477 58.6279 102.622 57.366 102.134 56.7554C101.686 56.1041 101.34 55.7784 101.096 55.7784C100.893 55.7784 100.73 55.8598 100.608 56.0226C97.5963 59.6048 95.3581 62.4543 93.8931 64.571C92.4281 66.647 91.2073 68.8859 90.2307 71.2876C90.19 71.6539 90.0272 71.8371 89.7423 71.8371C89.3761 71.8371 88.786 71.3894 87.9721 70.4938C87.1176 69.5983 86.6089 68.662 86.4461 67.6851C86.4461 65.5276 88.9691 61.1517 94.0152 54.5572C96.4569 51.3007 99.9159 47.4743 104.392 43.078C108.909 38.641 111.432 33.8783 116.967 29.5227Z" fill="black"/>
<path d="M54.7828 14.2424C56.708 15.7716 58.3302 18.4731 59.5061 22.1956C60.6726 25.8882 61.3202 30.3425 61.4472 35.0119C61.7046 44.4762 59.8153 54.0324 56.5995 59.2788C55.045 61.815 52.2197 64.6496 48.5105 67.37C44.8402 70.062 40.4724 72.5195 36.0108 74.376C31.5385 76.2369 27.0699 77.4531 23.1908 77.7438C19.2401 78.0399 16.291 77.3491 14.4776 75.9087C12.2837 74.1661 10.9933 72.2951 10.2877 70.3984C9.57876 68.4928 9.38362 66.3545 9.6696 63.9546C10.2555 59.0378 12.8143 53.3895 16.4191 47.5085C19.9576 41.7355 27.7771 31.4092 35.9256 23.5666C40.0093 19.6362 44.0296 16.4731 47.5256 14.7701C51.1272 13.0157 53.4113 13.153 54.7828 14.2424ZM59.1772 61.3262C62.9165 55.2255 64.8437 44.8122 64.5754 34.9467C64.441 30.0037 63.755 25.1645 62.4513 21.0377C61.1495 16.9169 59.2161 13.4586 56.5576 11.3469C53.7968 9.15406 50.1444 9.61677 46.2596 11.5092C42.3519 13.4128 38.0597 16.8311 33.8826 20.8515C25.5247 28.8956 17.5271 39.4481 13.8414 45.4611C10.167 51.4558 7.2555 57.6676 6.56797 63.4373C6.22304 66.3319 6.43567 69.1327 7.40596 71.7409C8.37725 74.3517 10.0938 76.7319 12.7028 78.8042C15.382 80.9323 19.1934 81.6004 23.4363 81.2825C27.6933 80.9635 32.4603 79.6466 37.1216 77.707C41.785 75.7665 46.3599 73.1957 50.2338 70.3545C54.1013 67.5179 57.2986 64.391 59.1772 61.3262Z" fill="#649CE9" stroke="#649CE9"/>
<path d="M66.4424 45.458C70.5964 51.1168 71.8175 54.7016 71.8518 56.9199C71.8665 57.8699 71.6605 58.7015 71.2086 59.4906C70.7506 60.2903 70.0265 61.0695 68.9742 61.8793C67.0517 63.3587 64.5147 64.5738 61.5672 65.9827L61.5657 65.9834C61.1523 66.1811 60.7313 66.3823 60.304 66.5881C56.9992 68.1803 53.3022 70.0609 50.4347 72.7887C49.3469 73.8235 48.321 74.8555 47.3673 75.8148L47.366 75.816L47.3574 75.8247C47.1775 76.0057 47.0002 76.184 46.8253 76.3595C45.7041 77.4847 44.6928 78.4827 43.7162 79.3423C41.7403 81.0813 40.1726 82.0061 38.6422 82.2139C37.1928 82.4106 35.3508 82.0156 32.7418 80.0453C30.0882 78.0412 26.8173 74.5354 22.6404 68.8454C14.3203 57.5112 11.7714 49.3693 12.0543 43.3026C12.3322 37.3435 15.3878 32.5533 20.1992 27.9763C24.338 24.0392 31.5818 22.6114 40.2159 25.2392C48.7567 27.8385 58.2745 34.3311 66.4424 45.458ZM62.7533 69.2598L62.7715 69.2511C65.141 68.12 67.4869 67.0002 69.4665 65.7C71.4492 64.3976 73.1205 62.8794 74.0872 60.9193C75.0661 58.9344 75.288 56.5684 74.4944 53.6647C73.706 50.7804 71.9124 47.3486 68.8461 43.1714C60.3069 31.5387 50.2553 24.6117 41.0425 21.8078C31.8472 19.0093 23.4132 20.3035 18.2043 25.2586C13.1164 30.0986 9.28046 35.7284 8.93491 43.1384C8.5904 50.5261 11.7238 59.5352 20.2367 71.132C24.0458 76.321 27.2447 79.9111 30.0358 82.2399C32.8281 84.5696 35.2387 85.6592 37.465 85.7962C39.698 85.9337 41.6815 85.109 43.6046 83.7528C45.5093 82.4096 47.3879 80.5201 49.4102 78.486L49.4324 78.4637C50.3877 77.5028 51.3784 76.5064 52.4297 75.5063C55.2011 72.8699 59.0052 71.0489 62.7533 69.2598Z" fill="#0760D9" stroke="#0760D9"/>
</svg>
