<svg width="135" height="58" viewBox="0 0 135 58" fill="none" xmlns="http://www.w3.org/2000/svg">
<path d="M61.5598 53.1429V26.4286H55.6359V53.1429H61.5598Z" fill="#015BD7"/>
<path d="M29.4585 49.4464L20.2952 33.4328L33.3601 23.0079L26.1705 21.7396L14.4014 31.783L16.4749 20.0292L10.6411 19L6.00003 45.308L11.8338 46.3372L13.2603 38.2515L15.828 36.183L22.269 48.1781L29.4585 49.4464Z" fill="#015BD7"/>
<path d="M49.5376 52.9886L50.4073 48.0583L38.8219 46.0145L42.5932 24.6368L36.7594 23.6076L32.1183 49.9157L49.5376 52.9886Z" fill="#015BD7"/>
<path d="M94.1659 48.1931L89.527 21.8847L83.6931 22.9134L86.6072 39.44L70.9982 25.1518L65 26.2095L69.6389 52.5179L75.4728 51.4892L72.4474 34.3316L88.5374 49.1856L94.1659 48.1931Z" fill="#015BD7"/>
<path d="M123.028 43.104L108.939 31.1913L117.649 16.926L110.46 18.1937L102.837 31.6573L100.764 19.9033L94.9301 20.932L99.569 47.2404L105.403 46.2117L103.977 38.1259L105.682 35.3038L115.838 44.3717L123.028 43.104Z" fill="#015BD7"/>
<path d="M115.051 28.5984L115.512 33.1268C115.545 33.4551 115.222 33.7585 114.792 33.8022C114.363 33.8459 113.985 33.6138 113.952 33.2856L113.491 28.7548C113.457 28.4265 113.78 28.1231 114.21 28.0794C114.64 28.038 115.017 28.2701 115.051 28.5984V28.5984Z" fill="#015BD7"/>
<path fill-rule="evenodd" clip-rule="evenodd" d="M109.401 12.7482C109.6 12.9474 109.85 13.049 110.1 13.049L110.1 13.0492C110.35 13.0492 110.6 12.9477 110.799 12.7992C111.198 12.4008 111.198 11.7993 110.799 11.4008L99.6971 0.29883C99.2987 -0.09961 98.6971 -0.09961 98.2987 0.29883C97.9002 0.69723 97.9002 1.29879 98.2987 1.69723L109.401 12.7482ZM129.525 37.9064C129.725 38.1057 129.975 38.2072 130.225 38.2072L130.225 38.2074C130.475 38.2074 130.725 38.1059 130.924 37.9574C131.322 37.559 131.322 36.9575 130.924 36.559L119.822 25.457C119.423 25.0586 118.822 25.0586 118.423 25.457C118.025 25.8554 118.025 26.457 118.423 26.8554L129.525 37.9064ZM121.998 14.146C121.748 14.146 121.498 14.0444 121.299 13.8452C120.9 13.4468 120.9 12.8452 121.299 12.4468L132.447 1.29883C132.845 0.90039 133.447 0.90039 133.845 1.29883C134.244 1.69727 134.244 2.29883 133.845 2.69723L122.697 13.8452C122.498 14.0444 122.248 14.146 121.998 14.146ZM123 21L130.601 21C131.152 21 131.601 20.5508 131.601 20C131.601 19.4492 131.152 19 130.601 19L123 19C122.449 19 122 19.4492 122 20C122 20.5508 122.449 21 123 21ZM116 11.8516C115.449 11.8516 115 11.4024 115 10.8516V3C115 2.44922 115.449 2 116 2C116.551 2 117 2.44922 117 3V10.8516C117 11.3985 116.551 11.8516 116 11.8516ZM97.9542 15.2078L105.203 17.4846C105.728 17.6496 106.291 17.3557 106.46 16.8314C106.625 16.3059 106.331 15.7427 105.806 15.5777L98.5536 13.2997C98.0281 13.1346 97.4649 13.4286 97.2998 13.954C97.1348 14.4795 97.4287 15.0427 97.9542 15.2078Z" fill="#015BD7"/>
</svg>
